<svg id="svg" version="1.1" width="400" height="400" viewBox="0 0 400 400" xmlns="http://www.w3.org/2000/svg" xmlns:xlink="http://www.w3.org/1999/xlink" ><g id="svgg"><path id="path0" d="M143.141 196.101 C 143.307 196.267,169.893 196.357,202.221 196.301 L 261.000 196.200 201.920 196.000 C 169.426 195.890,142.976 195.936,143.141 196.101 " stroke="none" fill="#000055" fill-rule="evenodd"></path><path id="path1" d="M183.930 150.700 C 193.682 150.760,209.522 150.760,219.130 150.700 C 228.739 150.640,220.760 150.591,201.400 150.591 C 182.040 150.591,174.179 150.640,183.930 150.700 " stroke="none" fill="#003399" fill-rule="evenodd"></path><path id="path2" d="M164.562 158.600 C 164.562 162.120,164.624 163.506,164.698 161.681 C 164.772 159.856,164.772 156.976,164.697 155.281 C 164.622 153.586,164.561 155.080,164.562 158.600 M172.531 180.700 C 188.774 180.758,215.234 180.758,231.331 180.700 C 247.429 180.642,234.140 180.595,201.800 180.595 C 169.460 180.595,156.289 180.642,172.531 180.700 M141.689 188.251 C 141.610 193.984,141.678 194.763,142.300 195.251 C 142.917 195.735,142.942 195.726,142.511 195.172 C 142.184 194.753,141.981 192.417,141.900 188.172 L 141.778 181.800 141.689 188.251 M172.500 195.900 C 188.505 195.958,214.695 195.958,230.700 195.900 C 246.705 195.842,233.610 195.795,201.600 195.795 C 169.590 195.795,156.495 195.842,172.500 195.900 M142.662 210.700 C 142.494 210.971,183.205 210.970,238.800 210.696 C 250.350 210.639,233.486 210.549,201.324 210.496 C 169.162 210.443,142.764 210.535,142.662 210.700 M141.619 218.350 C 141.647 222.153,141.760 225.173,141.872 225.061 C 142.132 224.802,142.030 211.897,141.766 211.633 C 141.657 211.524,141.591 214.547,141.619 218.350 M164.563 248.000 C 164.563 251.630,164.623 253.115,164.698 251.300 C 164.772 249.485,164.772 246.515,164.698 244.700 C 164.623 242.885,164.563 244.370,164.563 248.000 " stroke="none" fill="#00558e" fill-rule="evenodd"></path><path id="path3" d="M109.985 131.684 C 50.891 190.798,18.800 223.175,18.800 223.682 C 18.800 225.029,27.861 233.696,28.925 233.367 C 29.406 233.218,34.993 227.910,41.340 221.570 L 52.881 210.043 126.583 283.722 C 212.370 369.481,201.975 359.323,203.321 358.698 C 203.911 358.424,204.395 358.052,204.397 357.871 C 204.401 357.397,205.468 356.400,205.971 356.400 C 206.207 356.400,206.400 356.207,206.400 355.971 C 206.400 355.418,207.418 354.400,207.971 354.400 C 208.207 354.400,208.400 354.207,208.400 353.971 C 208.400 353.418,209.418 352.400,209.971 352.400 C 210.207 352.400,210.400 352.207,210.400 351.971 C 210.400 351.418,211.418 350.400,211.971 350.400 C 212.207 350.400,212.400 350.207,212.400 349.971 C 212.400 349.418,213.418 348.400,213.971 348.400 C 214.207 348.400,214.400 348.207,214.400 347.971 C 214.400 347.418,215.418 346.400,215.971 346.400 C 216.207 346.400,216.400 346.207,216.400 345.971 C 216.400 345.418,217.418 344.400,217.971 344.400 C 218.207 344.400,218.400 344.207,218.400 343.971 C 218.400 343.418,219.418 342.400,219.971 342.400 C 220.207 342.400,220.400 342.207,220.400 341.971 C 220.400 341.418,221.418 340.400,221.971 340.400 C 222.207 340.400,222.400 340.207,222.400 339.971 C 222.400 339.418,223.418 338.400,223.971 338.400 C 224.207 338.400,224.400 338.207,224.400 337.971 C 224.400 337.418,225.418 336.400,225.971 336.400 C 226.207 336.400,226.400 336.207,226.400 335.971 C 226.400 335.418,227.418 334.400,227.971 334.400 C 228.207 334.400,228.400 334.207,228.400 333.971 C 228.400 333.418,229.418 332.400,229.971 332.400 C 230.207 332.400,230.400 332.207,230.400 331.971 C 230.400 331.418,231.418 330.400,231.971 330.400 C 232.207 330.400,232.400 330.207,232.400 329.971 C 232.400 329.418,233.418 328.400,233.971 328.400 C 234.207 328.400,234.400 328.207,234.400 327.971 C 234.400 327.418,235.418 326.400,235.971 326.400 C 236.207 326.400,236.400 326.207,236.400 325.971 C 236.400 325.418,237.418 324.400,237.971 324.400 C 238.207 324.400,238.400 324.207,238.400 323.971 C 238.400 323.418,239.418 322.400,239.971 322.400 C 240.207 322.400,240.400 322.207,240.400 321.971 C 240.400 321.418,241.418 320.400,241.971 320.400 C 242.207 320.400,242.400 320.207,242.400 319.971 C 242.400 319.418,243.418 318.400,243.971 318.400 C 244.207 318.400,244.400 318.207,244.400 317.971 C 244.400 317.418,245.418 316.400,245.971 316.400 C 246.207 316.400,246.400 316.207,246.400 315.971 C 246.400 315.418,247.418 314.400,247.971 314.400 C 248.207 314.400,248.400 314.207,248.400 313.971 C 248.400 313.418,249.418 312.400,249.971 312.400 C 250.207 312.400,250.400 312.207,250.400 311.971 C 250.400 311.418,251.418 310.400,251.971 310.400 C 252.207 310.400,252.400 310.207,252.400 309.971 C 252.400 309.418,253.418 308.400,253.971 308.400 C 254.207 308.400,254.400 308.207,254.400 307.971 C 254.400 307.418,255.418 306.400,255.971 306.400 C 256.207 306.400,256.400 306.207,256.400 305.971 C 256.400 305.418,257.418 304.400,257.971 304.400 C 258.207 304.400,258.400 304.207,258.400 303.971 C 258.400 303.418,259.418 302.400,259.971 302.400 C 260.207 302.400,260.400 302.207,260.400 301.971 C 260.400 301.418,261.418 300.400,261.971 300.400 C 262.207 300.400,262.400 300.207,262.400 299.971 C 262.400 299.418,263.418 298.400,263.971 298.400 C 264.207 298.400,264.400 298.207,264.400 297.971 C 264.400 297.418,265.418 296.400,265.971 296.400 C 266.207 296.400,266.400 296.207,266.400 295.971 C 266.400 295.418,267.418 294.400,267.971 294.400 C 268.207 294.400,268.400 294.207,268.400 293.971 C 268.400 293.418,269.418 292.400,269.971 292.400 C 270.207 292.400,270.400 292.207,270.400 291.971 C 270.400 291.418,271.418 290.400,271.971 290.400 C 272.207 290.400,272.400 290.207,272.400 289.971 C 272.400 289.418,273.418 288.400,273.971 288.400 C 274.207 288.400,274.400 288.207,274.400 287.971 C 274.400 287.418,275.418 286.400,275.971 286.400 C 276.207 286.400,276.400 286.207,276.400 285.971 C 276.400 285.418,277.418 284.400,277.971 284.400 C 278.207 284.400,278.400 284.207,278.400 283.971 C 278.400 283.418,279.418 282.400,279.971 282.400 C 280.207 282.400,280.400 282.207,280.400 281.971 C 280.400 281.418,281.418 280.400,281.971 280.400 C 282.207 280.400,282.400 280.207,282.400 279.971 C 282.400 279.418,283.418 278.400,283.971 278.400 C 284.207 278.400,284.400 278.207,284.400 277.971 C 284.400 277.418,285.418 276.400,285.971 276.400 C 286.207 276.400,286.400 276.207,286.400 275.971 C 286.400 275.418,287.418 274.400,287.971 274.400 C 288.207 274.400,288.400 274.207,288.400 273.971 C 288.400 273.418,289.418 272.400,289.971 272.400 C 290.207 272.400,290.400 272.207,290.400 271.971 C 290.400 271.418,291.418 270.400,291.971 270.400 C 292.207 270.400,292.400 270.207,292.400 269.971 C 292.400 269.418,293.418 268.400,293.971 268.400 C 294.207 268.400,294.400 268.207,294.400 267.971 C 294.400 267.418,295.418 266.400,295.971 266.400 C 296.207 266.400,296.400 266.227,296.400 266.017 C 296.400 265.806,304.905 257.159,315.300 246.803 C 330.418 231.741,347.240 214.942,353.154 209.000 C 353.592 208.560,360.082 202.075,367.575 194.589 C 383.743 178.437,382.708 179.689,381.249 178.055 C 380.633 177.365,379.909 176.800,379.641 176.800 C 379.372 176.800,379.244 176.652,379.356 176.471 C 379.588 176.096,378.204 174.800,377.572 174.800 C 377.341 174.800,377.244 174.652,377.356 174.471 C 377.583 174.104,376.210 172.800,375.595 172.800 C 375.378 172.800,375.245 172.665,375.300 172.500 C 375.748 171.151,371.451 168.881,370.945 170.200 C 370.818 170.530,370.494 170.800,370.225 170.800 C 369.956 170.800,369.494 171.250,369.200 171.800 C 368.906 172.350,368.456 172.800,368.200 172.800 C 367.944 172.800,367.494 173.250,367.200 173.800 C 366.906 174.350,366.456 174.800,366.200 174.800 C 365.944 174.800,365.494 175.250,365.200 175.800 C 364.906 176.350,364.456 176.800,364.200 176.800 C 363.944 176.800,363.494 177.250,363.200 177.800 C 362.906 178.350,362.456 178.800,362.200 178.800 C 361.944 178.800,361.494 179.250,361.200 179.800 C 360.906 180.350,360.456 180.800,360.200 180.800 C 359.944 180.800,359.494 181.250,359.200 181.800 C 358.906 182.350,358.502 182.800,358.304 182.800 C 357.805 182.800,356.800 183.850,356.800 184.371 C 356.800 184.607,356.560 184.800,356.268 184.800 C 355.975 184.800,355.494 185.250,355.200 185.800 C 354.906 186.350,354.456 186.800,354.200 186.800 C 353.944 186.800,353.494 187.250,353.200 187.800 C 352.550 189.014,351.119 189.119,350.033 188.033 C 349.612 187.612,349.372 187.162,349.500 187.033 C 349.628 186.905,349.523 186.800,349.267 186.800 C 348.660 186.800,347.196 185.337,347.500 185.033 C 347.628 184.905,347.523 184.800,347.267 184.800 C 346.660 184.800,345.196 183.337,345.500 183.033 C 345.628 182.905,345.523 182.800,345.267 182.800 C 344.660 182.800,343.196 181.337,343.500 181.033 C 343.628 180.905,343.523 180.800,343.267 180.800 C 342.660 180.800,341.196 179.337,341.500 179.033 C 341.628 178.905,341.523 178.800,341.267 178.800 C 340.660 178.800,339.196 177.337,339.500 177.033 C 339.628 176.905,339.523 176.800,339.267 176.800 C 338.660 176.800,337.196 175.337,337.500 175.033 C 337.628 174.905,337.523 174.800,337.267 174.800 C 336.660 174.800,335.196 173.337,335.500 173.033 C 335.628 172.905,335.523 172.800,335.267 172.800 C 334.660 172.800,333.196 171.337,333.500 171.033 C 333.628 170.905,333.523 170.800,333.267 170.800 C 332.660 170.800,331.196 169.337,331.500 169.033 C 331.628 168.905,331.523 168.800,331.267 168.800 C 330.660 168.800,329.196 167.337,329.500 167.033 C 329.628 166.905,329.523 166.800,329.267 166.800 C 328.660 166.800,327.196 165.337,327.500 165.033 C 327.628 164.905,327.523 164.800,327.267 164.800 C 326.660 164.800,325.196 163.337,325.500 163.033 C 325.628 162.905,325.523 162.800,325.267 162.800 C 324.660 162.800,323.196 161.337,323.500 161.033 C 323.628 160.905,323.523 160.800,323.267 160.800 C 322.660 160.800,321.196 159.337,321.500 159.033 C 321.628 158.905,321.523 158.800,321.267 158.800 C 320.660 158.800,319.196 157.337,319.500 157.033 C 319.628 156.905,319.523 156.800,319.267 156.800 C 318.660 156.800,317.196 155.337,317.500 155.033 C 317.628 154.905,317.523 154.800,317.267 154.800 C 316.660 154.800,315.196 153.337,315.500 153.033 C 315.628 152.905,315.523 152.800,315.267 152.800 C 314.660 152.800,313.196 151.337,313.500 151.033 C 313.628 150.905,313.523 150.800,313.267 150.800 C 312.660 150.800,311.196 149.337,311.500 149.033 C 311.628 148.905,311.523 148.800,311.267 148.800 C 310.660 148.800,309.196 147.337,309.500 147.033 C 309.628 146.905,309.523 146.800,309.267 146.800 C 308.660 146.800,307.196 145.337,307.500 145.033 C 307.628 144.905,307.523 144.800,307.267 144.800 C 306.660 144.800,305.196 143.337,305.500 143.033 C 305.628 142.905,305.523 142.800,305.267 142.800 C 304.660 142.800,303.196 141.337,303.500 141.033 C 303.628 140.905,303.523 140.800,303.267 140.800 C 302.660 140.800,301.196 139.337,301.500 139.033 C 301.628 138.905,301.523 138.800,301.267 138.800 C 300.660 138.800,299.196 137.337,299.500 137.033 C 299.628 136.905,299.523 136.800,299.267 136.800 C 298.660 136.800,297.196 135.337,297.500 135.033 C 297.628 134.905,297.523 134.800,297.267 134.800 C 296.660 134.800,295.196 133.337,295.500 133.033 C 295.628 132.905,295.523 132.800,295.267 132.800 C 294.660 132.800,293.196 131.337,293.500 131.033 C 293.628 130.905,293.523 130.800,293.267 130.800 C 292.660 130.800,291.196 129.337,291.500 129.033 C 291.628 128.905,291.523 128.800,291.267 128.800 C 290.660 128.800,289.196 127.337,289.500 127.033 C 289.628 126.905,289.523 126.800,289.267 126.800 C 288.660 126.800,287.196 125.337,287.500 125.033 C 287.628 124.905,287.532 124.800,287.285 124.800 C 287.039 124.800,267.970 105.932,244.911 82.871 C 221.851 59.809,202.575 40.835,202.077 40.704 C 201.292 40.499,188.905 52.736,109.985 131.684 M340.800 200.333 C 340.800 200.590,340.560 200.800,340.268 200.800 C 339.975 200.800,339.494 201.250,339.200 201.800 C 338.906 202.350,338.425 202.800,338.132 202.800 C 337.840 202.800,337.600 202.944,337.600 203.119 C 337.600 203.583,334.441 206.800,333.985 206.800 C 333.773 206.800,333.600 206.944,333.600 207.119 C 333.600 207.542,330.460 210.800,330.053 210.800 C 329.878 210.800,329.494 211.250,329.200 211.800 C 328.906 212.350,328.502 212.800,328.304 212.800 C 327.805 212.800,326.800 213.850,326.800 214.371 C 326.800 214.607,326.560 214.800,326.268 214.800 C 325.975 214.800,325.494 215.250,325.200 215.800 C 324.906 216.350,324.425 216.800,324.132 216.800 C 323.840 216.800,323.600 216.944,323.600 217.119 C 323.600 217.583,320.441 220.800,319.985 220.800 C 319.773 220.800,319.600 220.949,319.600 221.132 C 319.600 221.542,312.432 228.800,312.027 228.800 C 311.867 228.800,311.494 229.250,311.200 229.800 C 310.906 230.350,310.456 230.800,310.200 230.800 C 309.944 230.800,309.494 231.250,309.200 231.800 C 308.906 232.350,308.456 232.800,308.200 232.800 C 307.944 232.800,307.494 233.250,307.200 233.800 C 306.906 234.350,306.502 234.800,306.304 234.800 C 305.805 234.800,304.800 235.850,304.800 236.371 C 304.800 236.607,304.560 236.800,304.268 236.800 C 303.975 236.800,303.494 237.250,303.200 237.800 C 302.906 238.350,302.456 238.800,302.200 238.800 C 301.944 238.800,301.494 239.250,301.200 239.800 C 300.906 240.350,300.502 240.800,300.304 240.800 C 299.805 240.800,298.800 241.850,298.800 242.371 C 298.800 242.607,298.560 242.800,298.268 242.800 C 297.975 242.800,297.494 243.250,297.200 243.800 C 296.906 244.350,296.456 244.800,296.200 244.800 C 295.944 244.800,295.494 245.250,295.200 245.800 C 294.906 246.350,294.456 246.800,294.200 246.800 C 293.944 246.800,293.494 247.250,293.200 247.800 C 292.906 248.350,292.425 248.800,292.132 248.800 C 291.840 248.800,291.600 248.944,291.600 249.119 C 291.600 249.542,288.460 252.800,288.053 252.800 C 287.878 252.800,287.494 253.250,287.200 253.800 C 286.906 254.350,286.456 254.800,286.200 254.800 C 285.944 254.800,285.494 255.250,285.200 255.800 C 284.906 256.350,284.425 256.800,284.132 256.800 C 283.840 256.800,283.600 256.953,283.600 257.140 C 283.600 257.585,205.585 335.600,205.140 335.600 C 204.953 335.600,204.800 335.870,204.800 336.200 C 204.800 336.530,204.654 336.800,204.475 336.800 C 204.297 336.800,203.765 337.159,203.294 337.598 L 202.437 338.396 132.978 268.937 L 63.519 199.479 132.716 130.286 L 201.912 61.093 271.356 130.479 C 309.550 168.642,340.800 200.076,340.800 200.333 M164.789 151.400 C 164.649 159.391,164.833 165.357,165.233 165.840 C 165.772 166.489,237.217 166.516,237.867 165.867 C 238.434 165.300,238.454 151.482,237.888 151.122 C 236.855 150.466,164.801 150.740,164.789 151.400 M142.329 181.086 C 141.723 181.816,141.902 194.468,142.527 195.096 C 143.261 195.834,260.797 195.845,261.265 195.108 C 261.684 194.449,261.687 181.956,261.269 181.297 C 260.809 180.573,142.929 180.363,142.329 181.086 M259.479 210.655 C 259.402 210.732,232.945 210.798,200.687 210.803 L 142.036 210.810 141.918 217.854 L 141.800 224.897 142.726 225.248 C 144.603 225.961,261.082 225.685,261.357 224.967 C 261.491 224.619,261.600 221.310,261.600 217.614 L 261.600 210.893 260.609 210.704 C 260.065 210.600,259.556 210.578,259.479 210.655 M165.003 240.795 C 164.482 241.638,164.736 254.913,165.279 255.258 C 166.021 255.728,236.853 255.681,237.600 255.209 C 238.586 254.587,238.724 241.626,237.752 240.915 C 236.861 240.264,165.404 240.146,165.003 240.795 " stroke="none" fill="#2467aa" fill-rule="evenodd"></path><path id="path4" d="" stroke="none" fill="#009999" fill-rule="evenodd"></path></g></svg>