<svg
    xmlns="http://www.w3.org/2000/svg"
    fill="none"
    viewBox="0 0 356 56"
>
    <path
        fill="white"
        d="M165.723 17.235a6.246 6.246 0 0 0-2.925.726 8.068 8.068 0 0 0-2.454 1.983 7.497 7.497 0 0 0-.862 1.26l-.042-3.538h-4.751V38.36h4.869V27.326c0-.733.124-1.394.373-1.983a4.821 4.821 0 0 1 2.592-2.592 4.745 4.745 0 0 1 1.865-.373c.418 0 .837.053 1.256.157.419.105.772.236 1.061.393l1.295-5.3a5.652 5.652 0 0 0-1.001-.276 6.7 6.7 0 0 0-1.276-.117Zm-18.824 1.393c-1.624-.928-3.456-1.393-5.497-1.393-2.069 0-3.914.465-5.537 1.393a10.29 10.29 0 0 0-3.848 3.829c-.942 1.623-1.414 3.469-1.414 5.536 0 2.069.472 3.914 1.414 5.537a10.28 10.28 0 0 0 3.848 3.828c1.623.93 3.468 1.394 5.537 1.394 2.041 0 3.873-.464 5.497-1.394a10.135 10.135 0 0 0 3.828-3.828c.929-1.623 1.394-3.468 1.394-5.537 0-2.067-.465-3.913-1.394-5.536a10.144 10.144 0 0 0-3.828-3.829Zm-.412 12.664a6.143 6.143 0 0 1-2.082 2.316c-.877.577-1.878.864-3.003.864-1.126 0-2.14-.288-3.043-.864a5.87 5.87 0 0 1-2.101-2.316c-.498-.969-.746-2.068-.746-3.299 0-1.23.248-2.336.746-3.318a5.705 5.705 0 0 1 2.101-2.316c.903-.563 1.917-.845 3.043-.845 1.125 0 2.126.282 3.003.845.877.563 1.571 1.329 2.082 2.297.51.969.752 2.08.726 3.337.026 1.231-.216 2.33-.726 3.299Zm-21.404-13.115c-1.061-.628-2.376-.942-3.947-.942a7.765 7.765 0 0 0-3.219.706 8.84 8.84 0 0 0-2.71 1.865 6.788 6.788 0 0 0-.628.74V9.303h-4.79V38.36h4.829V25.873c0-.628.124-1.204.373-1.728a4.575 4.575 0 0 1 2.553-2.336 5.464 5.464 0 0 1 1.943-.334c.864-.026 1.597.125 2.199.452.602.327 1.047.838 1.335 1.531.288.694.432 1.565.432 2.611v12.29h4.83V25.717c0-1.885-.269-3.455-.805-4.712-.537-1.257-1.335-2.199-2.395-2.827Zm-55.51-.157a8.054 8.054 0 0 1 2.748-1.885 8.688 8.688 0 0 1 3.397-.668c.81 0 1.603.125 2.375.373.772.25 1.518.616 2.238 1.1.72.485 1.42 1.08 2.1 1.787l3.26-3.574c-.707-.916-1.584-1.72-2.63-2.415a13.541 13.541 0 0 0-3.456-1.629 12.956 12.956 0 0 0-3.888-.589c-1.963 0-3.782.353-5.457 1.06a13.365 13.365 0 0 0-4.398 2.984 14.013 14.013 0 0 0-2.945 4.477c-.707 1.702-1.06 3.547-1.06 5.536 0 2.068.333 3.973 1 5.713.669 1.742 1.604 3.247 2.808 4.516a12.276 12.276 0 0 0 4.28 2.925c1.65.68 3.469 1.021 5.458 1.021 1.283 0 2.572-.164 3.868-.49 1.296-.328 2.467-.78 3.514-1.355 1.047-.576 1.885-1.217 2.513-1.924l-2.513-4.045a10.64 10.64 0 0 1-1.904 1.512 8.998 8.998 0 0 1-2.258 1.001 8.968 8.968 0 0 1-2.513.354c-1.335 0-2.559-.216-3.671-.648a8.047 8.047 0 0 1-2.867-1.865 8.344 8.344 0 0 1-1.845-2.906c-.432-1.125-.648-2.382-.648-3.77 0-1.36.222-2.597.668-3.71a8.963 8.963 0 0 1 1.825-2.886Zm107.918-5.615h-4.83v5.261h-4.083v4.477h4.083V38.36h4.83V22.143h4.515v-4.477h-4.515v-5.261Zm-75.493 6.223c-1.623-.928-3.455-1.393-5.497-1.393-2.068 0-3.914.465-5.537 1.393a10.29 10.29 0 0 0-3.848 3.829c-.942 1.623-1.413 3.469-1.413 5.536 0 2.069.471 3.914 1.413 5.537a10.28 10.28 0 0 0 3.849 3.828c1.622.93 3.468 1.394 5.536 1.394 2.042 0 3.874-.464 5.497-1.394a10.144 10.144 0 0 0 3.829-3.828c.929-1.623 1.394-3.468 1.394-5.537 0-2.067-.465-3.913-1.394-5.536a10.154 10.154 0 0 0-3.829-3.829Zm-.412 12.664a6.14 6.14 0 0 1-2.081 2.316c-.877.577-1.879.864-3.004.864-1.126 0-2.14-.288-3.043-.864a5.875 5.875 0 0 1-2.1-2.316c-.498-.969-.747-2.068-.747-3.299 0-1.23.249-2.336.746-3.318a5.71 5.71 0 0 1 2.1-2.316c.904-.563 1.918-.845 3.044-.845 1.125 0 2.126.282 3.004.845.877.563 1.57 1.329 2.081 2.297.51.969.752 2.08.726 3.337.026 1.231-.216 2.33-.726 3.299Zm210.564-11.04a6.961 6.961 0 0 0-.822-.819 10.448 10.448 0 0 0-1.668-1.138 8.376 8.376 0 0 0-2.022-.786 9.39 9.39 0 0 0-2.278-.274c-1.885 0-3.58.465-5.085 1.393-1.505.93-2.69 2.2-3.553 3.81-.864 1.61-1.296 3.449-1.296 5.516 0 2.068.438 3.894 1.315 5.478.877 1.584 2.068 2.834 3.573 3.75 1.505.916 3.24 1.374 5.203 1.374a8.32 8.32 0 0 0 3.298-.687c1.074-.458 1.964-1.054 2.671-1.787.225-.233.419-.471.588-.713v1.93c0 1.309-.235 2.402-.706 3.28-.471.876-1.172 1.53-2.101 1.962-.93.432-2.088.649-3.475.649-.759 0-1.525-.08-2.297-.236a11.407 11.407 0 0 1-2.179-.668 9.63 9.63 0 0 1-1.846-1.02l-1.727 3.573c.942.759 2.179 1.374 3.71 1.845 1.531.471 3.069.707 4.614.707 1.701 0 3.22-.23 4.555-.687 1.335-.459 2.474-1.139 3.416-2.042.942-.903 1.662-1.996 2.159-3.279.498-1.283.747-2.762.747-4.437v-19.28h-4.752l-.042 2.585Zm-.664 11.079a5.61 5.61 0 0 1-2.101 2.277c-.903.55-1.944.825-3.122.825s-2.212-.275-3.102-.825c-.89-.55-1.59-1.315-2.1-2.297-.511-.981-.766-2.087-.766-3.318 0-1.256.255-2.375.766-3.357.51-.982 1.21-1.753 2.1-2.317.89-.562 1.924-.844 3.102-.844s2.212.275 3.102.825c.89.55 1.591 1.315 2.101 2.297.51.981.766 2.114.766 3.396 0 1.257-.25 2.37-.746 3.338Zm25.358-11.21a9.576 9.576 0 0 0-3.063-2.14c-1.178-.524-2.448-.786-3.809-.786-1.545 0-2.965.269-4.26.805a9.586 9.586 0 0 0-3.338 2.277c-.929.982-1.656 2.14-2.179 3.476-.524 1.335-.786 2.814-.786 4.437 0 2.041.465 3.854 1.394 5.438.929 1.584 2.225 2.834 3.888 3.75 1.662.916 3.579 1.374 5.752 1.374.968 0 1.95-.131 2.945-.392a14.288 14.288 0 0 0 2.847-1.08 10.555 10.555 0 0 0 2.415-1.669l-2.396-3.338c-.942.812-1.819 1.375-2.63 1.689-.812.314-1.702.471-2.67.471-1.388 0-2.599-.268-3.632-.805a5.704 5.704 0 0 1-2.396-2.297 6.46 6.46 0 0 1-.75-2.238h15.259l.039-1.689c.026-1.465-.19-2.82-.648-4.064-.458-1.243-1.119-2.316-1.982-3.22Zm-2.082 5.674h-10.484a6.309 6.309 0 0 1 .472-1.434 4.758 4.758 0 0 1 1.982-2.14c.877-.497 1.957-.746 3.24-.746.837 0 1.603.177 2.297.53a4.726 4.726 0 0 1 1.708 1.453c.445.616.707 1.329.785 2.14v.197Zm19.621-8.443a6.7 6.7 0 0 0-1.276-.117c-1.02 0-1.996.242-2.925.726a8.092 8.092 0 0 0-3.315 3.243l-.042-3.538h-4.751V38.36h4.869V27.326c0-.733.124-1.394.373-1.983a4.819 4.819 0 0 1 2.591-2.592 4.749 4.749 0 0 1 1.865-.373c.419 0 .838.053 1.257.157.418.105.772.236 1.06.393l1.296-5.3a5.665 5.665 0 0 0-1.002-.276Zm-66.426 3.231a7.718 7.718 0 0 0-1.452-1.62 7.183 7.183 0 0 0-2.278-1.277c-.864-.3-1.82-.451-2.867-.451-1.806 0-3.429.458-4.868 1.374-1.44.916-2.579 2.186-3.417 3.809-.838 1.623-1.256 3.469-1.256 5.536 0 2.068.418 3.914 1.256 5.537.838 1.623 1.95 2.905 3.338 3.848 1.387.942 2.932 1.413 4.634 1.413.994 0 1.93-.157 2.807-.47a9.875 9.875 0 0 0 2.395-1.238 7.77 7.77 0 0 0 1.669-1.594v2.91h4.908V17.666h-4.869v2.917Zm-.569 10.768c-.485.981-1.158 1.747-2.022 2.297-.864.55-1.859.824-2.984.824-1.126 0-2.115-.275-2.965-.824-.851-.55-1.512-1.316-1.983-2.298-.471-.981-.707-2.113-.707-3.396 0-1.256.236-2.369.707-3.338.471-.968 1.132-1.727 1.983-2.277.85-.55 1.839-.824 2.965-.824 1.125 0 2.12.274 2.984.824.864.55 1.537 1.31 2.022 2.277.484.97.726 2.082.726 3.338 0 1.283-.242 2.415-.726 3.396Zm-45.089-10.768a7.75 7.75 0 0 0-1.453-1.62 7.189 7.189 0 0 0-2.277-1.277c-.864-.3-1.82-.451-2.867-.451-1.806 0-3.429.458-4.869 1.374-1.44.916-2.579 2.186-3.416 3.809-.838 1.623-1.257 3.469-1.257 5.536 0 2.068.419 3.914 1.257 5.537.837 1.623 1.95 2.905 3.338 3.848 1.387.942 2.931 1.413 4.633 1.413.995 0 1.93-.157 2.808-.47a9.912 9.912 0 0 0 2.395-1.238 7.816 7.816 0 0 0 1.669-1.594v2.91h4.908V17.666h-4.869v2.917Zm-.57 10.768c-.484.981-1.158 1.747-2.022 2.297-.864.55-1.859.824-2.984.824-1.126 0-2.114-.275-2.965-.824-.851-.55-1.511-1.316-1.983-2.298-.471-.981-.706-2.113-.706-3.396 0-1.256.235-2.369.706-3.338.472-.968 1.132-1.727 1.983-2.277.851-.55 1.839-.824 2.965-.824 1.125 0 2.12.274 2.984.824.864.55 1.538 1.31 2.022 2.277.485.97.727 2.082.727 3.338 0 1.283-.242 2.415-.727 3.396Zm24.53-13.174c-1.06-.628-2.376-.942-3.946-.942-1.1 0-2.173.235-3.22.706a8.836 8.836 0 0 0-2.709 1.865c-.245.249-.46.507-.653.773l-.054-2.913h-4.712V38.36h4.83V25.873c0-.628.124-1.204.373-1.728a4.575 4.575 0 0 1 2.552-2.336 5.47 5.47 0 0 1 1.944-.334c.864-.026 1.596.125 2.198.452.602.327 1.047.838 1.335 1.531.288.694.432 1.565.432 2.611v12.29h4.83V25.717c0-1.885-.269-3.456-.805-4.712-.536-1.257-1.335-2.199-2.395-2.827Zm-56.69 6.688-8.597-13.992h-4.83V38.36h5.065V28.033c0-2.54-.059-4.732-.176-6.577a57.732 57.732 0 0 0-.17-2.03l7.257 11.473h2.592l7.475-11.54a63.51 63.51 0 0 0-.192 2.313 103.555 103.555 0 0 0-.176 6.36V38.36h5.065V10.873h-4.594l-8.719 13.992ZM48.416 22.634 26.6.818a2.813 2.813 0 0 0-3.966 0L.818 22.634a2.813 2.813 0 0 0 0 3.966l19.954 19.954c.29.29.388.7.293 1.07l-3.16 7.179.002.002a.84.84 0 0 0 1.355.949l7.338-7.338L48.416 26.6a2.813 2.813 0 0 0 0-3.966ZM25.41 41.673a1.122 1.122 0 0 1-1.586 0L7.56 25.41a1.122 1.122 0 0 1 0-1.587L23.824 7.561a1.122 1.122 0 0 1 1.586 0l16.263 16.262a1.122 1.122 0 0 1 0 1.587L25.41 41.673Z"
    />
    <path
        fill="#64DC78"
        d="M36.068 22.934H13.07c-.618 0-1.122.505-1.122 1.122v1.122c0 .617.504 1.122 1.121 1.122h23c.616 0 1.121-.505 1.121-1.122v-1.122c0-.617-.505-1.122-1.122-1.122ZM19.38 19.568h10.378c.617 0 1.121-.505 1.121-1.122v-1.122c0-.617-.505-1.121-1.122-1.121H19.38c-.617 0-1.122.505-1.122 1.122v1.121c0 .617.505 1.122 1.122 1.122Zm10.378 10.097H19.38c-.617 0-1.122.505-1.122 1.122v1.122c0 .617.505 1.122 1.122 1.122h10.378c.617 0 1.121-.505 1.121-1.122v-1.122c0-.617-.505-1.122-1.122-1.122Z"
    />
</svg>