<svg xmlns="http://www.w3.org/2000/svg"  viewBox="0 0 48 48" width="48px" height="48px" baseProfile="basic"><path d="M43.893,24c-0.498-4.917-2.812-9.523-6.528-12.866c-4.271-3.844-9.79-5.626-15.529-5.019	c-9.235,0.976-16.683,8.38-17.709,17.605C4.117,23.814,4.119,23.906,4.109,24H4v2h0.016c0.025,9.567,6.881,17.985,16.458,19.689	C21.629,45.896,22.815,46,24,46c11.028,0,20-8.972,20-20v-2H43.893z M26.366,41.14c-0.45,0.266-2.731,1.242-4.682,2.056l0.03-1.32	c0.039-1.666-0.961-3.189-2.488-3.789c-5.482-2.151-8.826-7.77-8.132-13.662c0.7-5.938,5.526-10.71,11.477-11.348	c0.485-0.052,0.967-0.077,1.446-0.077c3.211,0,6.244,1.157,8.664,3.332C35.425,18.798,37,22.322,37,26	C37,32.117,33.72,36.787,26.366,41.14z"/><path fill="#fff" d="M21.941,5.109c-8.75,0.925-15.848,7.978-16.82,16.722c-1.127,10.134,5.757,19.134,15.529,20.874	l0.065-2.852c0.028-1.238-0.702-2.383-1.854-2.836c-5.764-2.263-9.531-8.166-8.76-14.71c0.753-6.391,5.965-11.539,12.363-12.225	C30.868,9.182,38,15.773,38,24c0,7.72-5,12.375-11.125,16c-0.84,0.497-6.226,2.705-6.226,2.705C21.75,42.901,22.878,43,24,43	c10.477,0,19-8.523,19-19C43,12.845,33.336,3.904,21.941,5.109z"/><path d="M24,44c-1.185,0-2.371-0.104-3.526-0.311l0,0C10.142,41.851,2.961,32.2,4.127,21.721c1.026-9.226,8.474-16.63,17.709-17.605	l0,0c5.739-0.608,11.258,1.175,15.529,5.019C41.582,12.928,44,18.346,44,24C44,35.028,35.028,44,24,44z M23.963,9.002	c3.698,0,7.292,1.358,10.054,3.842C37.184,15.689,39,19.756,39,24c0,8.851-6.208,13.66-11.616,16.86	c-0.346,0.205-1.321,0.644-2.409,1.113C34.449,41.466,42,33.598,42,24c0-5.088-2.177-9.965-5.973-13.38	c-3.845-3.46-8.81-5.066-13.981-4.517l0,0C13.738,6.982,7.038,13.643,6.114,21.941c-1.005,9.043,4.887,17.398,13.563,19.536	l0.038-1.647c0.019-0.832-0.472-1.589-1.22-1.883c-6.327-2.482-10.188-8.963-9.387-15.758c0.808-6.855,6.38-12.365,13.25-13.102	C22.893,9.03,23.429,9.002,23.963,9.002z M24.016,10.999c-0.479,0-0.961,0.025-1.446,0.077c-5.95,0.638-10.777,5.41-11.477,11.348	c-0.694,5.893,2.65,11.511,8.132,13.662c1.527,0.6,2.527,2.123,2.488,3.789l-0.03,1.32c1.951-0.813,4.232-1.79,4.682-2.056	C33.72,34.787,37,30.117,37,24c0-3.678-1.575-7.202-4.32-9.669C30.26,12.156,27.227,10.999,24.016,10.999z"/></svg>